<svg width="129" height="26" viewBox="0 0 129 26" fill="none" xmlns="http://www.w3.org/2000/svg">
<path d="M5 0H124L129 7H0L5 0Z" fill="#D7445B"/>
<path d="M5 0H124V22C124 24.2091 122.209 26 120 26H9C6.79086 26 5 24.2091 5 22V0Z" fill="#FF6B82"/>
<path d="M16.9656 8.27273H19.2411L21.6445 14.1364H21.7468L24.1502 8.27273H26.4258V17H24.636V11.3196H24.5636L22.305 16.9574H21.0863L18.8278 11.2983H18.7553V17H16.9656V8.27273Z" fill="white"/>
<path d="M35.9659 12.6364C35.9659 13.5881 35.7855 14.3977 35.4247 15.0653C35.0668 15.733 34.5781 16.2429 33.9588 16.5952C33.3423 16.9446 32.6491 17.1193 31.8793 17.1193C31.1037 17.1193 30.4077 16.9432 29.7912 16.5909C29.1747 16.2386 28.6875 15.7287 28.3295 15.0611C27.9716 14.3935 27.7926 13.5852 27.7926 12.6364C27.7926 11.6847 27.9716 10.875 28.3295 10.2074C28.6875 9.53977 29.1747 9.03125 29.7912 8.68182C30.4077 8.32955 31.1037 8.15341 31.8793 8.15341C32.6491 8.15341 33.3423 8.32955 33.9588 8.68182C34.5781 9.03125 35.0668 9.53977 35.4247 10.2074C35.7855 10.875 35.9659 11.6847 35.9659 12.6364ZM34.0952 12.6364C34.0952 12.0199 34.0028 11.5 33.8182 11.0767C33.6364 10.6534 33.3793 10.3324 33.0469 10.1136C32.7145 9.89489 32.3253 9.78551 31.8793 9.78551C31.4332 9.78551 31.044 9.89489 30.7116 10.1136C30.3793 10.3324 30.1207 10.6534 29.9361 11.0767C29.7543 11.5 29.6634 12.0199 29.6634 12.6364C29.6634 13.2528 29.7543 13.7727 29.9361 14.196C30.1207 14.6193 30.3793 14.9403 30.7116 15.1591C31.044 15.3778 31.4332 15.4872 31.8793 15.4872C32.3253 15.4872 32.7145 15.3778 33.0469 15.1591C33.3793 14.9403 33.6364 14.6193 33.8182 14.196C34.0028 13.7727 34.0952 13.2528 34.0952 12.6364Z" fill="white"/>
<path d="M42.0671 10.7827C42.033 10.4389 41.8867 10.1719 41.6282 9.98153C41.3697 9.79119 41.0188 9.69602 40.5756 9.69602C40.2745 9.69602 40.0202 9.73864 39.8129 9.82386C39.6055 9.90625 39.4464 10.0213 39.3356 10.169C39.2276 10.3168 39.1736 10.4844 39.1736 10.6719C39.168 10.8281 39.2006 10.9645 39.2717 11.081C39.3455 11.1974 39.4464 11.2983 39.5742 11.3835C39.7021 11.4659 39.8498 11.5384 40.0174 11.6009C40.185 11.6605 40.364 11.7116 40.5543 11.7543L41.3384 11.9418C41.7191 12.027 42.0685 12.1406 42.3867 12.2827C42.7049 12.4247 42.9805 12.5994 43.2134 12.8068C43.4464 13.0142 43.6268 13.2585 43.7546 13.5398C43.8853 13.821 43.9521 14.1435 43.9549 14.5071C43.9521 15.0412 43.8157 15.5043 43.5458 15.8963C43.2788 16.2855 42.8924 16.5881 42.3867 16.804C41.8839 17.017 41.2773 17.1236 40.5671 17.1236C39.8626 17.1236 39.2489 17.0156 38.7262 16.7997C38.2063 16.5838 37.8001 16.2642 37.5075 15.8409C37.2177 15.4148 37.0657 14.8878 37.0515 14.2599H38.837C38.8569 14.5526 38.9407 14.7969 39.0884 14.9929C39.239 15.1861 39.4393 15.3324 39.6893 15.4318C39.9421 15.5284 40.2276 15.5767 40.5458 15.5767C40.8583 15.5767 41.1296 15.5313 41.3597 15.4403C41.5927 15.3494 41.7731 15.223 41.9009 15.0611C42.0288 14.8991 42.0927 14.7131 42.0927 14.5028C42.0927 14.3068 42.0344 14.142 41.918 14.0085C41.8043 13.875 41.6367 13.7614 41.4151 13.6676C41.1964 13.5739 40.9279 13.4886 40.6097 13.4119L39.6594 13.1733C38.9237 12.9943 38.3427 12.7145 37.9165 12.3338C37.4904 11.9531 37.2788 11.4403 37.2816 10.7955C37.2788 10.267 37.4194 9.8054 37.7035 9.41051C37.9904 9.01562 38.3839 8.70739 38.8839 8.4858C39.3839 8.2642 39.9521 8.15341 40.5884 8.15341C41.2362 8.15341 41.8015 8.2642 42.2844 8.4858C42.7702 8.70739 43.1481 9.01562 43.418 9.41051C43.6879 9.8054 43.8271 10.2628 43.8356 10.7827H42.0671Z" fill="white"/>
<path d="M44.8636 9.79403V8.27273H52.0312V9.79403H49.3594V17H47.5355V9.79403H44.8636Z" fill="white"/>
<path d="M55.989 17V8.27273H59.4322C60.0941 8.27273 60.658 8.39915 61.1239 8.65199C61.5898 8.90199 61.945 9.25 62.1893 9.69602C62.4364 10.1392 62.56 10.6506 62.56 11.2301C62.56 11.8097 62.435 12.321 62.185 12.7642C61.935 13.2074 61.5728 13.5526 61.0984 13.7997C60.6268 14.0469 60.0558 14.1705 59.3853 14.1705H57.1907V12.6918H59.087C59.4421 12.6918 59.7347 12.6307 59.9648 12.5085C60.1978 12.3835 60.3711 12.2116 60.4847 11.9929C60.6012 11.7713 60.6594 11.517 60.6594 11.2301C60.6594 10.9403 60.6012 10.6875 60.4847 10.4716C60.3711 10.2528 60.1978 10.0838 59.9648 9.96449C59.7319 9.84233 59.4364 9.78125 59.0785 9.78125H57.8342V17H55.989Z" fill="white"/>
<path d="M71.7784 12.6364C71.7784 13.5881 71.598 14.3977 71.2372 15.0653C70.8793 15.733 70.3906 16.2429 69.7713 16.5952C69.1548 16.9446 68.4617 17.1193 67.6918 17.1193C66.9162 17.1193 66.2202 16.9432 65.6037 16.5909C64.9872 16.2386 64.5 15.7287 64.142 15.0611C63.7841 14.3935 63.6051 13.5852 63.6051 12.6364C63.6051 11.6847 63.7841 10.875 64.142 10.2074C64.5 9.53977 64.9872 9.03125 65.6037 8.68182C66.2202 8.32955 66.9162 8.15341 67.6918 8.15341C68.4617 8.15341 69.1548 8.32955 69.7713 8.68182C70.3906 9.03125 70.8793 9.53977 71.2372 10.2074C71.598 10.875 71.7784 11.6847 71.7784 12.6364ZM69.9077 12.6364C69.9077 12.0199 69.8153 11.5 69.6307 11.0767C69.4489 10.6534 69.1918 10.3324 68.8594 10.1136C68.527 9.89489 68.1378 9.78551 67.6918 9.78551C67.2457 9.78551 66.8565 9.89489 66.5241 10.1136C66.1918 10.3324 65.9332 10.6534 65.7486 11.0767C65.5668 11.5 65.4759 12.0199 65.4759 12.6364C65.4759 13.2528 65.5668 13.7727 65.7486 14.196C65.9332 14.6193 66.1918 14.9403 66.5241 15.1591C66.8565 15.3778 67.2457 15.4872 67.6918 15.4872C68.1378 15.4872 68.527 15.3778 68.8594 15.1591C69.1918 14.9403 69.4489 14.6193 69.6307 14.196C69.8153 13.7727 69.9077 13.2528 69.9077 12.6364Z" fill="white"/>
<path d="M73.1452 17V8.27273H76.5884C77.2504 8.27273 77.8143 8.39915 78.2802 8.65199C78.7461 8.90199 79.1012 9.25 79.3455 9.69602C79.5927 10.1392 79.7163 10.6506 79.7163 11.2301C79.7163 11.8097 79.5913 12.321 79.3413 12.7642C79.0913 13.2074 78.729 13.5526 78.2546 13.7997C77.783 14.0469 77.212 14.1705 76.5415 14.1705H74.3469V12.6918H76.2433C76.5984 12.6918 76.891 12.6307 77.1211 12.5085C77.354 12.3835 77.5273 12.2116 77.641 11.9929C77.7575 11.7713 77.8157 11.517 77.8157 11.2301C77.8157 10.9403 77.7575 10.6875 77.641 10.4716C77.5273 10.2528 77.354 10.0838 77.1211 9.96449C76.8881 9.84233 76.5927 9.78125 76.2347 9.78125H74.9904V17H73.1452Z" fill="white"/>
<path d="M86.3054 8.27273H88.1506V13.9403C88.1506 14.5767 87.9986 15.1335 87.6946 15.6108C87.3935 16.0881 86.9716 16.4602 86.429 16.7273C85.8864 16.9915 85.2543 17.1236 84.5327 17.1236C83.8082 17.1236 83.1747 16.9915 82.6321 16.7273C82.0895 16.4602 81.6676 16.0881 81.3665 15.6108C81.0653 15.1335 80.9148 14.5767 80.9148 13.9403V8.27273H82.7599V13.7827C82.7599 14.1151 82.8324 14.4105 82.9773 14.669C83.125 14.9276 83.3324 15.1307 83.5994 15.2784C83.8665 15.4261 84.1776 15.5 84.5327 15.5C84.8906 15.5 85.2017 15.4261 85.4659 15.2784C85.733 15.1307 85.9389 14.9276 86.0838 14.669C86.2315 14.4105 86.3054 14.1151 86.3054 13.7827V8.27273Z" fill="white"/>
<path d="M89.6687 17V8.27273H91.5138V15.4787H95.2553V17H89.6687Z" fill="white"/>
<path d="M98.2042 17H96.2269L99.2397 8.27273H101.618L104.626 17H102.649L100.463 10.267H100.395L98.2042 17ZM98.0806 13.5696H102.751V15.0099H98.0806V13.5696Z" fill="white"/>
<path d="M105.676 17V8.27273H109.12C109.779 8.27273 110.341 8.39062 110.807 8.62642C111.276 8.85937 111.632 9.19034 111.877 9.61932C112.124 10.0455 112.248 10.5469 112.248 11.1236C112.248 11.7031 112.123 12.2017 111.873 12.6193C111.623 13.0341 111.26 13.3523 110.786 13.5739C110.314 13.7955 109.743 13.9062 109.073 13.9062H106.767V12.4233H108.775C109.127 12.4233 109.419 12.375 109.652 12.2784C109.885 12.1818 110.059 12.0369 110.172 11.8438C110.289 11.6506 110.347 11.4105 110.347 11.1236C110.347 10.8338 110.289 10.5895 110.172 10.3906C110.059 10.1918 109.884 10.0412 109.648 9.93892C109.415 9.83381 109.121 9.78125 108.766 9.78125H107.522V17H105.676ZM110.39 13.0284L112.559 17H110.522L108.4 13.0284H110.39Z" fill="white"/>
</svg>
